<svg width="560" height="480" viewBox="0 0 560 480" fill="none" xmlns="http://www.w3.org/2000/svg">
  <rect width="560" height="480" rx="40" fill="#EEF2FF"/>
  <g filter="url(#shadow-card)">
    <rect x="60" y="60" width="200" height="260" rx="28" fill="#0F172A"/>
    <path d="M108 208c28-42 60-30 90 12" stroke="#94A3B8" stroke-width="8" stroke-linecap="round" opacity="0.5"/>
    <circle cx="108" cy="208" r="10" fill="#38BDF8"/>
  </g>
  <g filter="url(#shadow-card2)">
    <rect x="196" y="144" width="280" height="216" rx="32" fill="#FFFFFF"/>
    <rect x="236" y="184" width="92" height="92" rx="18" fill="#2563EB" opacity="0.15"/>
    <rect x="348" y="184" width="92" height="92" rx="18" fill="#F97316" opacity="0.12"/>
    <rect x="236" y="296" width="204" height="14" rx="7" fill="#CBD5F5"/>
    <rect x="236" y="316" width="140" height="12" rx="6" fill="#E2E8F0"/>
  </g>
  <circle cx="430" cy="90" r="54" fill="#0F172A"/>
  <circle cx="414" cy="400" r="66" fill="#2563EB" fill-opacity="0.12"/>
  <circle cx="140" cy="380" r="46" fill="#0EA5E9" fill-opacity="0.18"/>
  <defs>
    <filter id="shadow-card" x="10" y="20" width="300" height="360" filterUnits="userSpaceOnUse" color-interpolation-filters="sRGB">
      <feDropShadow dx="0" dy="24" stdDeviation="26" flood-color="#94A3B8" flood-opacity="0.3"/>
    </filter>
    <filter id="shadow-card2" x="136" y="104" width="380" height="316" filterUnits="userSpaceOnUse" color-interpolation-filters="sRGB">
      <feDropShadow dx="0" dy="28" stdDeviation="28" flood-color="#CBD5F5" flood-opacity="0.4"/>
    </filter>
  </defs>
</svg>
