<svg width="640" height="640" viewBox="0 0 640 640" fill="none" xmlns="http://www.w3.org/2000/svg">
  <rect width="640" height="640" rx="48" fill="#F8FAFC"/>
  <g filter="url(#shadow1)">
    <rect x="120" y="92" width="240" height="320" rx="32" fill="url(#card1)"/>
  </g>
  <g filter="url(#shadow2)">
    <rect x="276" y="188" width="244" height="320" rx="36" fill="url(#card2)"/>
  </g>
  <g filter="url(#shadow3)">
    <circle cx="194" cy="446" r="78" fill="#0F172A"/>
  </g>
  <g filter="url(#shadow4)">
    <circle cx="448" cy="144" r="64" fill="#2563EB" fill-opacity="0.8"/>
  </g>
  <path d="M188 268C248 228 276 232 332 296" stroke="white" stroke-width="8" stroke-linecap="round"/>
  <path d="M328 356C368 316 392 320 448 384" stroke="#0F172A" stroke-width="10" stroke-linecap="round" stroke-opacity="0.25"/>
  <circle cx="188" cy="268" r="12" fill="#2563EB"/>
  <circle cx="328" cy="356" r="10" fill="#0F172A" fill-opacity="0.6"/>
  <circle cx="448" cy="384" r="14" fill="#2563EB" fill-opacity="0.65"/>
  <defs>
    <linearGradient id="card1" x1="120" y1="92" x2="368" y2="412" gradientUnits="userSpaceOnUse">
      <stop stop-color="#0F172A"/>
      <stop offset="1" stop-color="#1E293B"/>
    </linearGradient>
    <linearGradient id="card2" x1="276" y1="188" x2="544" y2="508" gradientUnits="userSpaceOnUse">
      <stop stop-color="#E0E7FF"/>
      <stop offset="1" stop-color="#C7D2FE"/>
    </linearGradient>
    <filter id="shadow1" x="60" y="44" width="360" height="440" filterUnits="userSpaceOnUse" color-interpolation-filters="sRGB">
      <feDropShadow dx="0" dy="24" stdDeviation="28" flood-color="#94A3B8" flood-opacity="0.28"/>
    </filter>
    <filter id="shadow2" x="216" y="140" width="364" height="440" filterUnits="userSpaceOnUse" color-interpolation-filters="sRGB">
      <feDropShadow dx="0" dy="24" stdDeviation="28" flood-color="#CBD5F5" flood-opacity="0.5"/>
    </filter>
    <filter id="shadow3" x="86" y="338" width="216" height="216" filterUnits="userSpaceOnUse" color-interpolation-filters="sRGB">
      <feGaussianBlur stdDeviation="24" result="blur"/>
      <feOffset dy="18"/>
      <feColorMatrix type="matrix" values="0 0 0 0 0.06 0 0 0 0 0.09 0 0 0 0 0.16 0 0 0 0.18 0"/>
      <feBlend in2="blur" mode="normal"/>
    </filter>
    <filter id="shadow4" x="332" y="28" width="232" height="232" filterUnits="userSpaceOnUse" color-interpolation-filters="sRGB">
      <feGaussianBlur stdDeviation="16" result="blur"/>
      <feOffset dx="6" dy="14"/>
      <feColorMatrix type="matrix" values="0 0 0 0 0.12 0 0 0 0 0.2 0 0 0 0 0.38 0 0 0 0.25 0"/>
      <feBlend in2="blur" mode="normal"/>
    </filter>
  </defs>
</svg>
